<svg width="35" height="35" viewBox="0 0 35 35" fill="none" xmlns="http://www.w3.org/2000/svg">
<path d="M4.37501 18.9583H5.83335V29.1667C5.83335 30.7752 7.14147 32.0833 8.75001 32.0833H26.25C27.8586 32.0833 29.1667 30.7752 29.1667 29.1667V18.9583H30.625C30.9134 18.9583 31.1953 18.8727 31.4351 18.7125C31.6748 18.5522 31.8617 18.3245 31.972 18.058C32.0824 17.7916 32.1113 17.4984 32.055 17.2156C31.9988 16.9327 31.8599 16.6729 31.6561 16.469L18.5311 3.34397C18.3957 3.20842 18.235 3.10089 18.0581 3.02752C17.8812 2.95415 17.6915 2.91638 17.5 2.91638C17.3085 2.91638 17.1188 2.95415 16.9419 3.02752C16.765 3.10089 16.6043 3.20842 16.469 3.34397L3.34397 16.469C3.14008 16.6729 3.00124 16.9327 2.945 17.2156C2.88875 17.4984 2.91763 17.7916 3.02798 18.058C3.13834 18.3245 3.32521 18.5522 3.56497 18.7125C3.80474 18.8727 4.08663 18.9583 4.37501 18.9583ZM14.5833 29.1667V21.875H20.4167V29.1667H14.5833ZM17.5 6.43709L26.25 15.1871V21.875L26.2515 29.1667H23.3333V21.875C23.3333 20.2665 22.0252 18.9583 20.4167 18.9583H14.5833C12.9748 18.9583 11.6667 20.2665 11.6667 21.875V29.1667H8.75001V15.1871L17.5 6.43709Z" fill="#731012"/>
</svg>
