<svg width="28" height="28" viewBox="0 0 28 28" fill="none" xmlns="http://www.w3.org/2000/svg">
<g clip-path="url(#clip0_105_51)">
<path d="M13.9222 13.4556C16.0222 13.4556 17.6555 11.7444 17.6555 9.64444C17.6555 7.54444 15.9444 5.91111 13.8444 5.91111C11.7444 5.91111 10.1111 7.62222 10.1111 9.64444C10.1111 11.7444 11.8222 13.4556 13.9222 13.4556ZM13.8444 7.46667C13.9222 7.46667 13.9222 7.46667 13.8444 7.46667C15.0889 7.46667 16.1 8.47778 16.1 9.72222C16.1 10.9667 15.0889 11.9 13.8444 11.9C12.6 11.9 11.6666 10.8889 11.6666 9.72222C11.6666 8.47778 12.6778 7.46667 13.8444 7.46667Z" fill="#731012"/>
<path d="M25.4333 12.9889C23.9555 11.6667 22.0111 10.9667 19.9888 11.0444H19.3666C19.2111 11.6667 18.9777 12.2111 18.6666 12.6778C19.1333 12.6 19.5222 12.6 19.9888 12.6C21.4666 12.5222 22.9444 12.9889 24.1111 13.8444V19.4444H25.6666V13.2222L25.4333 12.9889Z" fill="#731012"/>
<path d="M18.2 6.06667C18.5889 5.13333 19.6778 4.66667 20.6889 5.05556C21.6222 5.44444 22.0889 6.53333 21.7 7.54444C21.3889 8.24444 20.6889 8.71111 19.9889 8.71111C19.8333 8.71111 19.6 8.71111 19.4444 8.63333C19.5222 9.02222 19.5222 9.41111 19.5222 9.72222V10.1889C19.6778 10.1889 19.8333 10.2667 19.9889 10.2667C21.9333 10.2667 23.4889 8.71111 23.4889 6.84444C23.4889 4.9 21.9333 3.34444 20.0666 3.34444C18.8222 3.34444 17.7333 3.96667 17.1111 5.05556C17.5 5.28889 17.8889 5.6 18.2 6.06667Z" fill="#731012"/>
<path d="M9.33337 12.7556C9.02226 12.2889 8.78893 11.7444 8.63337 11.1222H8.01115C5.98893 11.0444 4.04449 11.7444 2.56671 12.9889L2.33337 13.2222V19.4444H3.88893V13.8444C5.13337 12.9889 6.53337 12.5222 8.01115 12.6C8.47782 12.6 8.94449 12.6778 9.33337 12.7556Z" fill="#731012"/>
<path d="M8.01108 10.1889C8.16664 10.1889 8.32219 10.1889 8.47775 10.1111V9.64444C8.47775 9.25555 8.47775 8.86667 8.55552 8.55555C8.39997 8.63333 8.16664 8.63333 8.01108 8.63333C6.99997 8.63333 6.14441 7.77778 6.14441 6.76666C6.14441 5.75555 6.99997 4.9 8.01108 4.9C8.78886 4.9 9.48886 5.36667 9.79997 6.06667C10.1111 5.67778 10.5777 5.28889 10.9666 4.97778C9.95553 3.34444 7.85553 2.8 6.22219 3.81111C4.58886 4.82222 4.04441 6.92222 5.05553 8.55555C5.67775 9.56667 6.76664 10.1889 8.01108 10.1889Z" fill="#731012"/>
<path d="M20.3001 17.6556L20.1445 17.4222C18.5889 15.7111 16.4112 14.7 14.0778 14.7778C11.7445 14.7 9.48894 15.7111 7.93339 17.4222L7.77783 17.6556V23.5667C7.77783 24.2667 8.32228 24.8889 9.10005 24.8889H19.0556C19.7556 24.8889 20.3778 24.2667 20.3778 23.5667V17.6556H20.3001ZM18.7445 23.3333H9.33339V18.2C10.5778 16.9556 12.2889 16.3333 14.0778 16.3333C15.7889 16.2556 17.5001 16.9556 18.7445 18.2V23.3333Z" fill="#731012"/>
</g>
<defs>
<clipPath id="clip0_105_51">
<rect width="28" height="28" fill="white"/>
</clipPath>
</defs>
</svg>
