<svg width="35" height="35" viewBox="0 0 35 35" fill="none" xmlns="http://www.w3.org/2000/svg">
<path d="M17.5 30.625C14.1458 30.625 11.2233 29.5133 8.7325 27.2898C6.24167 25.0663 4.81347 22.2892 4.44792 18.9583H7.4375C7.77778 21.4861 8.90215 23.5764 10.8106 25.2292C12.7191 26.8819 14.9489 27.7083 17.5 27.7083C20.3437 27.7083 22.7563 26.7181 24.7377 24.7377C26.7191 22.7573 27.7093 20.3447 27.7083 17.5C27.7083 14.6562 26.7181 12.2442 24.7377 10.2637C22.7573 8.28333 20.3447 7.29264 17.5 7.29167C15.8229 7.29167 14.2552 7.68056 12.7969 8.45833C11.3385 9.23611 10.1111 10.3056 9.11458 11.6667H13.125V14.5833H4.375V5.83333H7.29167V9.26042C8.53125 7.70486 10.0445 6.50174 11.8315 5.65104C13.6184 4.80035 15.5079 4.375 17.5 4.375C19.3229 4.375 21.0306 4.7216 22.6231 5.41479C24.2156 6.10799 25.601 7.04326 26.7794 8.22062C27.9577 9.39993 28.8935 10.7853 29.5867 12.3769C30.2799 13.9684 30.626 15.6761 30.625 17.5C30.625 19.3229 30.2789 21.0306 29.5867 22.6231C28.8944 24.2156 27.9587 25.601 26.7794 26.7794C25.6001 27.9577 24.2147 28.8935 22.6231 29.5867C21.0316 30.2799 19.3239 30.626 17.5 30.625ZM21.5833 23.625L16.0417 18.0833V10.2083H18.9583V16.9167L23.625 21.5833L21.5833 23.625Z" fill="#731012"/>
</svg>
