<svg width="28" height="28" viewBox="0 0 28 28" fill="none" xmlns="http://www.w3.org/2000/svg">
<path d="M23.625 4.375H4.375C3.91087 4.375 3.46575 4.55937 3.13756 4.88756C2.80937 5.21575 2.625 5.66087 2.625 6.125V21.875C2.625 22.3391 2.80937 22.7842 3.13756 23.1124C3.46575 23.4406 3.91087 23.625 4.375 23.625H5.83953C6.00513 23.6251 6.16735 23.5781 6.30733 23.4896C6.44731 23.4012 6.55931 23.2748 6.63031 23.1252C7.0558 22.2268 7.72757 21.4678 8.5675 20.9362C9.40743 20.4047 10.381 20.1225 11.375 20.1225C12.369 20.1225 13.3426 20.4047 14.1825 20.9362C15.0224 21.4678 15.6942 22.2268 16.1197 23.1252C16.1907 23.2748 16.3027 23.4012 16.4427 23.4896C16.5827 23.5781 16.7449 23.6251 16.9105 23.625H23.625C24.0891 23.625 24.5342 23.4406 24.8624 23.1124C25.1906 22.7842 25.375 22.3391 25.375 21.875V6.125C25.375 5.66087 25.1906 5.21575 24.8624 4.88756C24.5342 4.55937 24.0891 4.375 23.625 4.375ZM8.75 15.75C8.75 15.2308 8.90395 14.7233 9.19239 14.2916C9.48083 13.86 9.8908 13.5235 10.3705 13.3248C10.8501 13.1261 11.3779 13.0742 11.8871 13.1754C12.3963 13.2767 12.864 13.5267 13.2312 13.8938C13.5983 14.261 13.8483 14.7287 13.9496 15.2379C14.0508 15.7471 13.9989 16.2749 13.8002 16.7545C13.6015 17.2342 13.2651 17.6442 12.8334 17.9326C12.4017 18.221 11.8942 18.375 11.375 18.375C10.6788 18.375 10.0111 18.0984 9.51884 17.6062C9.02656 17.1139 8.75 16.4462 8.75 15.75ZM23.625 21.875H17.4377C16.707 20.6187 15.6055 19.6193 14.2844 19.0138C14.9467 18.424 15.4142 17.6468 15.6248 16.7853C15.8355 15.9238 15.7793 15.0186 15.4637 14.1898C15.1482 13.3609 14.5882 12.6475 13.858 12.1442C13.1278 11.6408 12.2619 11.3713 11.375 11.3713C10.4881 11.3713 9.62218 11.6408 8.89198 12.1442C8.16177 12.6475 7.60179 13.3609 7.28625 14.1898C6.97072 15.0186 6.91454 15.9238 7.12517 16.7853C7.33579 17.6468 7.80326 18.424 8.46563 19.0138C7.14449 19.6193 6.04304 20.6187 5.31234 21.875H4.375V6.125H23.625V21.875ZM6.125 10.5V8.75C6.125 8.51794 6.21719 8.29538 6.38128 8.13128C6.54538 7.96719 6.76794 7.875 7 7.875H21C21.2321 7.875 21.4546 7.96719 21.6187 8.13128C21.7828 8.29538 21.875 8.51794 21.875 8.75V19.25C21.875 19.4821 21.7828 19.7046 21.6187 19.8687C21.4546 20.0328 21.2321 20.125 21 20.125H19.25C19.0179 20.125 18.7954 20.0328 18.6313 19.8687C18.4672 19.7046 18.375 19.4821 18.375 19.25C18.375 19.0179 18.4672 18.7954 18.6313 18.6313C18.7954 18.4672 19.0179 18.375 19.25 18.375H20.125V9.625H7.875V10.5C7.875 10.7321 7.78281 10.9546 7.61872 11.1187C7.45462 11.2828 7.23206 11.375 7 11.375C6.76794 11.375 6.54538 11.2828 6.38128 11.1187C6.21719 10.9546 6.125 10.7321 6.125 10.5Z" fill="#731012"/>
</svg>
