<svg width="28" height="28" viewBox="0 0 28 28" fill="none" xmlns="http://www.w3.org/2000/svg">
<path d="M24.7767 6.16985L14.2767 2.66985C14.0971 2.60997 13.9029 2.60997 13.7233 2.66985L3.22328 6.16985C3.04905 6.22793 2.89752 6.33936 2.79014 6.48835C2.68276 6.63735 2.62499 6.81635 2.625 7V15.75C2.625 15.9821 2.71719 16.2046 2.88128 16.3687C3.04538 16.5328 3.26794 16.625 3.5 16.625C3.73206 16.625 3.95462 16.5328 4.11872 16.3687C4.28281 16.2046 4.375 15.9821 4.375 15.75V8.21407L8.04891 9.43797C7.0728 11.0149 6.7624 12.9148 7.18587 14.7205C7.60933 16.5261 8.73205 18.0899 10.3075 19.0684C8.33875 19.8406 6.63688 21.2373 5.39219 23.147C5.32745 23.2432 5.28249 23.3514 5.25991 23.4651C5.23733 23.5788 5.23758 23.6959 5.26065 23.8096C5.28373 23.9232 5.32916 24.0311 5.3943 24.1271C5.45945 24.223 5.54302 24.305 5.64014 24.3684C5.73727 24.4317 5.84602 24.4751 5.96007 24.4961C6.07412 24.517 6.1912 24.5151 6.3045 24.4904C6.4178 24.4657 6.52506 24.4188 6.62005 24.3522C6.71504 24.2857 6.79586 24.201 6.85781 24.103C8.50609 21.5742 11.1092 20.125 14 20.125C16.8908 20.125 19.4939 21.5742 21.1422 24.103C21.2705 24.2937 21.4688 24.4263 21.6941 24.472C21.9194 24.5178 22.1536 24.473 22.3462 24.3474C22.5387 24.2218 22.6741 24.0255 22.7231 23.8009C22.772 23.5762 22.7306 23.3414 22.6078 23.147C21.3631 21.2373 19.6547 19.8406 17.6925 19.0684C19.2664 18.0899 20.3881 16.5272 20.8115 14.7228C21.2349 12.9185 20.9255 11.02 19.9511 9.44344L24.7767 7.83563C24.951 7.77758 25.1026 7.66617 25.21 7.51717C25.3174 7.36817 25.3752 7.18915 25.3752 7.00547C25.3752 6.82179 25.3174 6.64277 25.21 6.49378C25.1026 6.34478 24.951 6.23336 24.7767 6.17532V6.16985ZM19.25 13.125C19.2502 13.955 19.0537 14.7732 18.6765 15.5126C18.2992 16.2519 17.7521 16.8912 17.0799 17.3781C16.4078 17.8651 15.6297 18.1857 14.8097 18.3137C13.9896 18.4417 13.1509 18.3734 12.3623 18.1145C11.5737 17.8556 10.8577 17.4134 10.2731 16.8242C9.68856 16.235 9.25199 15.5156 8.99928 14.725C8.74656 13.9344 8.68489 13.0952 8.81932 12.2761C8.95376 11.4571 9.28047 10.6816 9.77266 10.0133L13.7233 11.3258C13.9029 11.3857 14.0971 11.3857 14.2767 11.3258L18.2273 10.0133C18.8921 10.9145 19.2505 12.0051 19.25 13.125ZM14 9.57797L6.26719 7L14 4.42204L21.7328 7L14 9.57797Z" fill="#731012"/>
</svg>
