<svg width="25" height="24" viewBox="0 0 25 24" fill="none" xmlns="http://www.w3.org/2000/svg">
<path d="M12.5 21C11.699 21 10.945 20.688 10.379 20.121C9.81298 19.554 9.49898 18.8 9.49998 17.998C9.49998 17.252 9.77098 17 10.264 16H5.42798C3.77398 16 2.42798 14.653 2.42798 13C2.42798 11.346 3.77398 10 5.42798 10H10.264C9.76998 9 9.49998 8.745 9.49998 7.999C9.49904 7.60482 9.57634 7.21438 9.7274 6.8503C9.87846 6.48622 10.1003 6.15573 10.38 5.878C11.512 4.746 13.488 4.745 14.621 5.879L21.742 13L14.621 20.121C14.3432 20.4006 14.0127 20.6222 13.6486 20.7731C13.2845 20.924 12.8941 21.0011 12.5 21ZM5.42798 12C5.1705 12.0115 4.92738 12.1219 4.74925 12.3082C4.57113 12.4945 4.47171 12.7423 4.47171 13C4.47171 13.2577 4.57113 13.5055 4.74925 13.6918C4.92738 13.8781 5.1705 13.9885 5.42798 14H15.086L11.793 17.293C11.6998 17.3854 11.6259 17.4954 11.5756 17.6166C11.5253 17.7378 11.4996 17.8678 11.5 17.999C11.5 18.268 11.604 18.518 11.793 18.707C11.9833 18.889 12.2366 18.9906 12.5 18.9906C12.7634 18.9906 13.0166 18.889 13.207 18.707L18.914 13L13.207 7.293C13.0166 7.11097 12.7634 7.00938 12.5 7.00938C12.2366 7.00938 11.9833 7.11097 11.793 7.293C11.6998 7.38539 11.6259 7.49538 11.5756 7.61658C11.5253 7.73778 11.4996 7.86777 11.5 7.999C11.5 8.267 11.604 8.518 11.793 8.707L15.086 12H5.42798Z" fill="white"/>
</svg>
